<mxfile host="app.diagrams.net" agent="Mozilla/5.0 (Windows NT 10.0; Win64; x64) AppleWebKit/537.36 (KHTML, like Gecko) Chrome/138.0.0.0 Safari/537.36 Edg/138.0.0.0" version="28.0.1">
  <diagram name="Page-1" id="eckuNXWOP7MNdlhbaDIQ">
    <mxGraphModel dx="2700" dy="2202" grid="1" gridSize="10" guides="1" tooltips="1" connect="1" arrows="1" fold="1" page="1" pageScale="1" pageWidth="850" pageHeight="1100" math="0" shadow="0">
      <root>
        <mxCell id="0" />
        <mxCell id="1" parent="0" />
        <mxCell id="aVW-M8XnfOwhoePV5vjM-1" value="AWS Cloud" style="points=[[0,0],[0.25,0],[0.5,0],[0.75,0],[1,0],[1,0.25],[1,0.5],[1,0.75],[1,1],[0.75,1],[0.5,1],[0.25,1],[0,1],[0,0.75],[0,0.5],[0,0.25]];outlineConnect=0;html=1;whiteSpace=wrap;fontSize=12;fontStyle=0;container=1;pointerEvents=0;collapsible=0;recursiveResize=0;shape=mxgraph.aws4.group;grIcon=mxgraph.aws4.group_aws_cloud_alt;strokeColor=#666666;fillColor=#f5f5f5;verticalAlign=top;align=left;spacingLeft=30;dashed=1;dashPattern=8 8;fontColor=#333333;" parent="1" vertex="1">
          <mxGeometry x="120" y="150" width="1570" height="1430" as="geometry" />
        </mxCell>
        <mxCell id="aVW-M8XnfOwhoePV5vjM-20" value="VPC" style="sketch=0;outlineConnect=0;html=1;whiteSpace=wrap;fontSize=12;fontStyle=0;shape=mxgraph.aws4.group;grIcon=mxgraph.aws4.group_vpc;strokeColor=#d6b656;fillColor=#fff2cc;verticalAlign=top;align=left;spacingLeft=30;dashed=0;" parent="aVW-M8XnfOwhoePV5vjM-1" vertex="1">
          <mxGeometry x="40" y="245" width="1330" height="940" as="geometry" />
        </mxCell>
        <mxCell id="aVW-M8XnfOwhoePV5vjM-22" style="edgeStyle=orthogonalEdgeStyle;rounded=0;orthogonalLoop=1;jettySize=auto;html=1;" parent="aVW-M8XnfOwhoePV5vjM-1" source="aVW-M8XnfOwhoePV5vjM-21" target="aVW-M8XnfOwhoePV5vjM-29" edge="1">
          <mxGeometry relative="1" as="geometry" />
        </mxCell>
        <mxCell id="aVW-M8XnfOwhoePV5vjM-21" value="Transit Gateway" style="sketch=0;points=[[0,0,0],[0.25,0,0],[0.5,0,0],[0.75,0,0],[1,0,0],[0,1,0],[0.25,1,0],[0.5,1,0],[0.75,1,0],[1,1,0],[0,0.25,0],[0,0.5,0],[0,0.75,0],[1,0.25,0],[1,0.5,0],[1,0.75,0]];outlineConnect=0;fontColor=#232F3E;fillColor=#8C4FFF;strokeColor=#ffffff;dashed=0;verticalLabelPosition=bottom;verticalAlign=top;align=center;html=1;fontSize=12;fontStyle=0;aspect=fixed;shape=mxgraph.aws4.resourceIcon;resIcon=mxgraph.aws4.transit_gateway;" parent="aVW-M8XnfOwhoePV5vjM-1" vertex="1">
          <mxGeometry x="650" y="130" width="78" height="78" as="geometry" />
        </mxCell>
        <mxCell id="aVW-M8XnfOwhoePV5vjM-24" style="edgeStyle=orthogonalEdgeStyle;rounded=0;orthogonalLoop=1;jettySize=auto;html=1;" parent="aVW-M8XnfOwhoePV5vjM-1" source="aVW-M8XnfOwhoePV5vjM-23" target="aVW-M8XnfOwhoePV5vjM-21" edge="1">
          <mxGeometry relative="1" as="geometry" />
        </mxCell>
        <mxCell id="aVW-M8XnfOwhoePV5vjM-23" value="Direct Connect" style="sketch=0;points=[[0,0,0],[0.25,0,0],[0.5,0,0],[0.75,0,0],[1,0,0],[0,1,0],[0.25,1,0],[0.5,1,0],[0.75,1,0],[1,1,0],[0,0.25,0],[0,0.5,0],[0,0.75,0],[1,0.25,0],[1,0.5,0],[1,0.75,0]];outlineConnect=0;fontColor=#232F3E;fillColor=#8C4FFF;strokeColor=#ffffff;dashed=0;verticalLabelPosition=bottom;verticalAlign=top;align=center;html=1;fontSize=12;fontStyle=0;aspect=fixed;shape=mxgraph.aws4.resourceIcon;resIcon=mxgraph.aws4.direct_connect;" parent="aVW-M8XnfOwhoePV5vjM-1" vertex="1">
          <mxGeometry x="820" y="70" width="78" height="78" as="geometry" />
        </mxCell>
        <mxCell id="aVW-M8XnfOwhoePV5vjM-28" value="" style="group;fillColor=#ffe6cc;strokeColor=#d79b00;fontStyle=1" parent="aVW-M8XnfOwhoePV5vjM-1" vertex="1" connectable="0">
          <mxGeometry x="160" y="420" width="1040" height="580" as="geometry" />
        </mxCell>
        <mxCell id="aVW-M8XnfOwhoePV5vjM-26" value="" style="rounded=0;whiteSpace=wrap;html=1;dashed=1;dashPattern=8 8;gradientColor=none;fillColor=none;" parent="aVW-M8XnfOwhoePV5vjM-28" vertex="1">
          <mxGeometry x="27.72" y="23.67" width="992.28" height="526.33" as="geometry" />
        </mxCell>
        <mxCell id="aVW-M8XnfOwhoePV5vjM-27" value="AWS EKS Cluster" style="sketch=0;points=[[0,0,0],[0.25,0,0],[0.5,0,0],[0.75,0,0],[1,0,0],[0,1,0],[0.25,1,0],[0.5,1,0],[0.75,1,0],[1,1,0],[0,0.25,0],[0,0.5,0],[0,0.75,0],[1,0.25,0],[1,0.5,0],[1,0.75,0]];outlineConnect=0;fontColor=#232F3E;fillColor=#ED7100;strokeColor=#ffffff;dashed=0;verticalLabelPosition=bottom;verticalAlign=top;align=center;html=1;fontSize=12;fontStyle=0;aspect=fixed;shape=mxgraph.aws4.resourceIcon;resIcon=mxgraph.aws4.eks;" parent="aVW-M8XnfOwhoePV5vjM-28" vertex="1">
          <mxGeometry width="40" height="40" as="geometry" />
        </mxCell>
        <mxCell id="aVW-M8XnfOwhoePV5vjM-30" value="Availability zone 1" style="sketch=0;outlineConnect=0;gradientColor=none;html=1;whiteSpace=wrap;fontSize=12;fontStyle=0;shape=mxgraph.aws4.group;grIcon=mxgraph.aws4.group_availability_zone;strokeColor=#545B64;fillColor=none;verticalAlign=top;align=left;spacingLeft=30;fontColor=#545B64;dashed=1;" parent="aVW-M8XnfOwhoePV5vjM-28" vertex="1">
          <mxGeometry x="99.06" y="150" width="295.38" height="363.45" as="geometry" />
        </mxCell>
        <mxCell id="aVW-M8XnfOwhoePV5vjM-31" value="Availability Zone 2" style="fillColor=none;strokeColor=#147EBA;dashed=1;verticalAlign=top;fontStyle=0;fontColor=#147EBA;whiteSpace=wrap;html=1;" parent="aVW-M8XnfOwhoePV5vjM-28" vertex="1">
          <mxGeometry x="434.44" y="150" width="300" height="363.45" as="geometry" />
        </mxCell>
        <mxCell id="aVW-M8XnfOwhoePV5vjM-33" value="" style="fillColor=none;strokeColor=#BAA042;dashed=1;verticalAlign=top;fontStyle=0;fontColor=#147EBA;whiteSpace=wrap;html=1;" parent="aVW-M8XnfOwhoePV5vjM-28" vertex="1">
          <mxGeometry x="760.94" y="150" width="199.06" height="360" as="geometry" />
        </mxCell>
        <mxCell id="aVW-M8XnfOwhoePV5vjM-53" style="edgeStyle=orthogonalEdgeStyle;rounded=0;orthogonalLoop=1;jettySize=auto;html=1;" parent="aVW-M8XnfOwhoePV5vjM-28" source="aVW-M8XnfOwhoePV5vjM-34" target="aVW-M8XnfOwhoePV5vjM-30" edge="1">
          <mxGeometry relative="1" as="geometry" />
        </mxCell>
        <mxCell id="aVW-M8XnfOwhoePV5vjM-54" style="edgeStyle=orthogonalEdgeStyle;rounded=0;orthogonalLoop=1;jettySize=auto;html=1;entryX=0.5;entryY=0;entryDx=0;entryDy=0;" parent="aVW-M8XnfOwhoePV5vjM-28" source="aVW-M8XnfOwhoePV5vjM-34" target="aVW-M8XnfOwhoePV5vjM-31" edge="1">
          <mxGeometry relative="1" as="geometry" />
        </mxCell>
        <mxCell id="aVW-M8XnfOwhoePV5vjM-34" value="&lt;font style=&quot;font-size: 21px;&quot;&gt;ingress&lt;/font&gt;" style="rounded=1;whiteSpace=wrap;html=1;fillColor=#dae8fc;strokeColor=#6c8ebf;fontStyle=1" parent="aVW-M8XnfOwhoePV5vjM-28" vertex="1">
          <mxGeometry x="274" y="31.66" width="290" height="60" as="geometry" />
        </mxCell>
        <mxCell id="aVW-M8XnfOwhoePV5vjM-35" value="EC2 Auto Scaling" style="sketch=0;points=[[0,0,0],[0.25,0,0],[0.5,0,0],[0.75,0,0],[1,0,0],[0,1,0],[0.25,1,0],[0.5,1,0],[0.75,1,0],[1,1,0],[0,0.25,0],[0,0.5,0],[0,0.75,0],[1,0.25,0],[1,0.5,0],[1,0.75,0]];outlineConnect=0;fontColor=#232F3E;fillColor=#ED7100;strokeColor=#ffffff;dashed=0;verticalLabelPosition=bottom;verticalAlign=top;align=center;html=1;fontSize=12;fontStyle=0;aspect=fixed;shape=mxgraph.aws4.resourceIcon;resIcon=mxgraph.aws4.auto_scaling2;" parent="aVW-M8XnfOwhoePV5vjM-28" vertex="1">
          <mxGeometry x="814.44" y="207.75" width="78" height="78" as="geometry" />
        </mxCell>
        <mxCell id="aVW-M8XnfOwhoePV5vjM-36" value="EBS" style="outlineConnect=0;dashed=0;verticalLabelPosition=bottom;verticalAlign=top;align=center;html=1;shape=mxgraph.aws3.volume;fillColor=#E05243;gradientColor=none;" parent="aVW-M8XnfOwhoePV5vjM-28" vertex="1">
          <mxGeometry x="794.44" y="350" width="52.5" height="75" as="geometry" />
        </mxCell>
        <mxCell id="aVW-M8XnfOwhoePV5vjM-37" value="EFS" style="outlineConnect=0;dashed=0;verticalLabelPosition=bottom;verticalAlign=top;align=center;html=1;shape=mxgraph.aws3.efs;fillColor=#E05243;gradientColor=none;" parent="aVW-M8XnfOwhoePV5vjM-28" vertex="1">
          <mxGeometry x="864.44" y="341" width="76.5" height="93" as="geometry" />
        </mxCell>
        <mxCell id="aVW-M8XnfOwhoePV5vjM-41" value="payment" style="outlineConnect=0;dashed=0;verticalLabelPosition=bottom;verticalAlign=top;align=center;html=1;shape=mxgraph.aws3.ec2_compute_container;fillColor=#F58534;gradientColor=none;" parent="aVW-M8XnfOwhoePV5vjM-28" vertex="1">
          <mxGeometry x="148.41" y="223.5" width="88.34" height="46.5" as="geometry" />
        </mxCell>
        <mxCell id="aVW-M8XnfOwhoePV5vjM-42" value="balance" style="outlineConnect=0;dashed=0;verticalLabelPosition=bottom;verticalAlign=top;align=center;html=1;shape=mxgraph.aws3.ec2_compute_container;fillColor=#F58534;gradientColor=none;" parent="aVW-M8XnfOwhoePV5vjM-28" vertex="1">
          <mxGeometry x="256.75" y="223.5" width="88.34" height="46.5" as="geometry" />
        </mxCell>
        <mxCell id="aVW-M8XnfOwhoePV5vjM-43" value="account" style="outlineConnect=0;dashed=0;verticalLabelPosition=bottom;verticalAlign=top;align=center;html=1;shape=mxgraph.aws3.ec2_compute_container;fillColor=#F58534;gradientColor=none;" parent="aVW-M8XnfOwhoePV5vjM-28" vertex="1">
          <mxGeometry x="148.40999999999997" y="303.5" width="88.34" height="46.5" as="geometry" />
        </mxCell>
        <mxCell id="aVW-M8XnfOwhoePV5vjM-44" value="message" style="outlineConnect=0;dashed=0;verticalLabelPosition=bottom;verticalAlign=top;align=center;html=1;shape=mxgraph.aws3.ec2_compute_container;fillColor=#F58534;gradientColor=none;" parent="aVW-M8XnfOwhoePV5vjM-28" vertex="1">
          <mxGeometry x="148.40999999999997" y="387.5" width="88.34" height="46.5" as="geometry" />
        </mxCell>
        <mxCell id="aVW-M8XnfOwhoePV5vjM-48" value="payment" style="outlineConnect=0;dashed=0;verticalLabelPosition=bottom;verticalAlign=top;align=center;html=1;shape=mxgraph.aws3.ec2_compute_container;fillColor=#F58534;gradientColor=none;" parent="aVW-M8XnfOwhoePV5vjM-28" vertex="1">
          <mxGeometry x="486.09999999999997" y="214.5" width="88.34" height="46.5" as="geometry" />
        </mxCell>
        <mxCell id="aVW-M8XnfOwhoePV5vjM-49" value="balance" style="outlineConnect=0;dashed=0;verticalLabelPosition=bottom;verticalAlign=top;align=center;html=1;shape=mxgraph.aws3.ec2_compute_container;fillColor=#F58534;gradientColor=none;" parent="aVW-M8XnfOwhoePV5vjM-28" vertex="1">
          <mxGeometry x="594.44" y="214.5" width="88.34" height="46.5" as="geometry" />
        </mxCell>
        <mxCell id="aVW-M8XnfOwhoePV5vjM-50" value="account" style="outlineConnect=0;dashed=0;verticalLabelPosition=bottom;verticalAlign=top;align=center;html=1;shape=mxgraph.aws3.ec2_compute_container;fillColor=#F58534;gradientColor=none;" parent="aVW-M8XnfOwhoePV5vjM-28" vertex="1">
          <mxGeometry x="486.09999999999997" y="294.5" width="88.34" height="46.5" as="geometry" />
        </mxCell>
        <mxCell id="aVW-M8XnfOwhoePV5vjM-51" value="message" style="outlineConnect=0;dashed=0;verticalLabelPosition=bottom;verticalAlign=top;align=center;html=1;shape=mxgraph.aws3.ec2_compute_container;fillColor=#F58534;gradientColor=none;" parent="aVW-M8XnfOwhoePV5vjM-28" vertex="1">
          <mxGeometry x="486.09999999999997" y="378.5" width="88.34" height="46.5" as="geometry" />
        </mxCell>
        <mxCell id="aVW-M8XnfOwhoePV5vjM-68" value="orboarding" style="outlineConnect=0;dashed=0;verticalLabelPosition=bottom;verticalAlign=top;align=center;html=1;shape=mxgraph.aws3.ec2_compute_container;fillColor=#F58534;gradientColor=none;" parent="aVW-M8XnfOwhoePV5vjM-28" vertex="1">
          <mxGeometry x="256.75" y="303.5" width="88.34" height="46.5" as="geometry" />
        </mxCell>
        <mxCell id="aVW-M8XnfOwhoePV5vjM-69" value="merchant" style="outlineConnect=0;dashed=0;verticalLabelPosition=bottom;verticalAlign=top;align=center;html=1;shape=mxgraph.aws3.ec2_compute_container;fillColor=#F58534;gradientColor=none;" parent="aVW-M8XnfOwhoePV5vjM-28" vertex="1">
          <mxGeometry x="260" y="387.5" width="88.34" height="46.5" as="geometry" />
        </mxCell>
        <mxCell id="aVW-M8XnfOwhoePV5vjM-52" style="edgeStyle=orthogonalEdgeStyle;rounded=0;orthogonalLoop=1;jettySize=auto;html=1;entryX=0.5;entryY=0;entryDx=0;entryDy=0;" parent="aVW-M8XnfOwhoePV5vjM-1" source="aVW-M8XnfOwhoePV5vjM-29" target="aVW-M8XnfOwhoePV5vjM-34" edge="1">
          <mxGeometry relative="1" as="geometry" />
        </mxCell>
        <mxCell id="aVW-M8XnfOwhoePV5vjM-29" value="ALB" style="sketch=0;outlineConnect=0;fontColor=#232F3E;gradientColor=none;fillColor=#8C4FFF;strokeColor=none;dashed=0;verticalLabelPosition=bottom;verticalAlign=top;align=center;html=1;fontSize=12;fontStyle=0;aspect=fixed;pointerEvents=1;shape=mxgraph.aws4.application_load_balancer;" parent="aVW-M8XnfOwhoePV5vjM-1" vertex="1">
          <mxGeometry x="540" y="280" width="78" height="78" as="geometry" />
        </mxCell>
        <mxCell id="aVW-M8XnfOwhoePV5vjM-45" value="MSK" style="sketch=0;points=[[0,0,0],[0.25,0,0],[0.5,0,0],[0.75,0,0],[1,0,0],[0,1,0],[0.25,1,0],[0.5,1,0],[0.75,1,0],[1,1,0],[0,0.25,0],[0,0.5,0],[0,0.75,0],[1,0.25,0],[1,0.5,0],[1,0.75,0]];outlineConnect=0;fontColor=#232F3E;fillColor=#8C4FFF;strokeColor=#ffffff;dashed=0;verticalLabelPosition=bottom;verticalAlign=top;align=center;html=1;fontSize=12;fontStyle=0;aspect=fixed;shape=mxgraph.aws4.resourceIcon;resIcon=mxgraph.aws4.managed_streaming_for_kafka;" parent="aVW-M8XnfOwhoePV5vjM-1" vertex="1">
          <mxGeometry x="60" y="651" width="78" height="78" as="geometry" />
        </mxCell>
        <mxCell id="aVW-M8XnfOwhoePV5vjM-46" style="edgeStyle=orthogonalEdgeStyle;rounded=0;orthogonalLoop=1;jettySize=auto;html=1;entryX=1;entryY=0.25;entryDx=0;entryDy=0;entryPerimeter=0;" parent="aVW-M8XnfOwhoePV5vjM-1" source="aVW-M8XnfOwhoePV5vjM-41" target="aVW-M8XnfOwhoePV5vjM-45" edge="1">
          <mxGeometry relative="1" as="geometry" />
        </mxCell>
        <mxCell id="aVW-M8XnfOwhoePV5vjM-55" value="Amazon ElastiCache" style="sketch=0;outlineConnect=0;fontColor=#232F3E;gradientColor=none;strokeColor=#ffffff;fillColor=#232F3E;dashed=0;verticalLabelPosition=middle;verticalAlign=bottom;align=center;html=1;whiteSpace=wrap;fontSize=10;fontStyle=1;spacing=3;shape=mxgraph.aws4.productIcon;prIcon=mxgraph.aws4.elasticache;" parent="aVW-M8XnfOwhoePV5vjM-1" vertex="1">
          <mxGeometry x="680" y="1020" width="80" height="110" as="geometry" />
        </mxCell>
        <mxCell id="aVW-M8XnfOwhoePV5vjM-56" style="edgeStyle=orthogonalEdgeStyle;rounded=0;orthogonalLoop=1;jettySize=auto;html=1;" parent="aVW-M8XnfOwhoePV5vjM-1" source="aVW-M8XnfOwhoePV5vjM-30" target="aVW-M8XnfOwhoePV5vjM-55" edge="1">
          <mxGeometry relative="1" as="geometry">
            <Array as="points">
              <mxPoint x="382" y="1030" />
            </Array>
          </mxGeometry>
        </mxCell>
        <mxCell id="aVW-M8XnfOwhoePV5vjM-57" style="edgeStyle=orthogonalEdgeStyle;rounded=0;orthogonalLoop=1;jettySize=auto;html=1;" parent="aVW-M8XnfOwhoePV5vjM-1" source="aVW-M8XnfOwhoePV5vjM-31" target="aVW-M8XnfOwhoePV5vjM-55" edge="1">
          <mxGeometry relative="1" as="geometry" />
        </mxCell>
        <mxCell id="aVW-M8XnfOwhoePV5vjM-58" value="Amazon&#xa;Aurora" style="sketch=0;outlineConnect=0;fontColor=#232F3E;gradientColor=none;strokeColor=#ffffff;fillColor=#232F3E;dashed=0;verticalLabelPosition=middle;verticalAlign=bottom;align=center;html=1;whiteSpace=wrap;fontSize=10;fontStyle=1;spacing=3;shape=mxgraph.aws4.productIcon;prIcon=mxgraph.aws4.aurora;" parent="aVW-M8XnfOwhoePV5vjM-1" vertex="1">
          <mxGeometry x="920" y="1020" width="80" height="110" as="geometry" />
        </mxCell>
        <mxCell id="aVW-M8XnfOwhoePV5vjM-59" style="edgeStyle=orthogonalEdgeStyle;rounded=0;orthogonalLoop=1;jettySize=auto;html=1;" parent="aVW-M8XnfOwhoePV5vjM-1" source="aVW-M8XnfOwhoePV5vjM-51" target="aVW-M8XnfOwhoePV5vjM-58" edge="1">
          <mxGeometry relative="1" as="geometry">
            <Array as="points">
              <mxPoint x="820" y="822" />
              <mxPoint x="820" y="1075" />
            </Array>
          </mxGeometry>
        </mxCell>
        <mxCell id="aVW-M8XnfOwhoePV5vjM-60" style="edgeStyle=orthogonalEdgeStyle;rounded=0;orthogonalLoop=1;jettySize=auto;html=1;entryX=0;entryY=0.5;entryDx=0;entryDy=0;entryPerimeter=0;" parent="aVW-M8XnfOwhoePV5vjM-1" source="aVW-M8XnfOwhoePV5vjM-45" target="aVW-M8XnfOwhoePV5vjM-44" edge="1">
          <mxGeometry relative="1" as="geometry" />
        </mxCell>
        <mxCell id="aVW-M8XnfOwhoePV5vjM-61" value="AWS OpenSearch Service" style="sketch=0;points=[[0,0,0],[0.25,0,0],[0.5,0,0],[0.75,0,0],[1,0,0],[0,1,0],[0.25,1,0],[0.5,1,0],[0.75,1,0],[1,1,0],[0,0.25,0],[0,0.5,0],[0,0.75,0],[1,0.25,0],[1,0.5,0],[1,0.75,0]];outlineConnect=0;fontColor=#232F3E;fillColor=#8C4FFF;strokeColor=#ffffff;dashed=0;verticalLabelPosition=bottom;verticalAlign=top;align=center;html=1;fontSize=12;fontStyle=0;aspect=fixed;shape=mxgraph.aws4.resourceIcon;resIcon=mxgraph.aws4.elasticsearch_service;" parent="aVW-M8XnfOwhoePV5vjM-1" vertex="1">
          <mxGeometry x="82" y="1050" width="78" height="78" as="geometry" />
        </mxCell>
        <mxCell id="aVW-M8XnfOwhoePV5vjM-66" style="edgeStyle=orthogonalEdgeStyle;rounded=0;orthogonalLoop=1;jettySize=auto;html=1;" parent="aVW-M8XnfOwhoePV5vjM-1" source="aVW-M8XnfOwhoePV5vjM-62" target="aVW-M8XnfOwhoePV5vjM-63" edge="1">
          <mxGeometry relative="1" as="geometry" />
        </mxCell>
        <mxCell id="aVW-M8XnfOwhoePV5vjM-62" value="Amazon CloudWatch" style="sketch=0;outlineConnect=0;fontColor=#232F3E;gradientColor=none;strokeColor=#ffffff;fillColor=#232F3E;dashed=0;verticalLabelPosition=middle;verticalAlign=bottom;align=center;html=1;whiteSpace=wrap;fontSize=10;fontStyle=1;spacing=3;shape=mxgraph.aws4.productIcon;prIcon=mxgraph.aws4.cloudwatch;" parent="aVW-M8XnfOwhoePV5vjM-1" vertex="1">
          <mxGeometry x="390" y="1040" width="80" height="110" as="geometry" />
        </mxCell>
        <mxCell id="aVW-M8XnfOwhoePV5vjM-63" value="Amazon Kinesis Data Firehose" style="sketch=0;outlineConnect=0;fontColor=#232F3E;gradientColor=none;strokeColor=#ffffff;fillColor=#232F3E;dashed=0;verticalLabelPosition=middle;verticalAlign=bottom;align=center;html=1;whiteSpace=wrap;fontSize=10;fontStyle=1;spacing=3;shape=mxgraph.aws4.productIcon;prIcon=mxgraph.aws4.kinesis_data_firehose;" parent="aVW-M8XnfOwhoePV5vjM-1" vertex="1">
          <mxGeometry x="230" y="1035" width="80" height="120" as="geometry" />
        </mxCell>
        <mxCell id="aVW-M8XnfOwhoePV5vjM-64" value="ECR" style="sketch=0;points=[[0,0,0],[0.25,0,0],[0.5,0,0],[0.75,0,0],[1,0,0],[0,1,0],[0.25,1,0],[0.5,1,0],[0.75,1,0],[1,1,0],[0,0.25,0],[0,0.5,0],[0,0.75,0],[1,0.25,0],[1,0.5,0],[1,0.75,0]];outlineConnect=0;fontColor=#232F3E;fillColor=#ED7100;strokeColor=#ffffff;dashed=0;verticalLabelPosition=bottom;verticalAlign=top;align=center;html=1;fontSize=12;fontStyle=0;aspect=fixed;shape=mxgraph.aws4.resourceIcon;resIcon=mxgraph.aws4.ecr;" parent="aVW-M8XnfOwhoePV5vjM-1" vertex="1">
          <mxGeometry x="60" y="290" width="78" height="78" as="geometry" />
        </mxCell>
        <mxCell id="aVW-M8XnfOwhoePV5vjM-65" style="edgeStyle=orthogonalEdgeStyle;rounded=0;orthogonalLoop=1;jettySize=auto;html=1;entryX=0.75;entryY=0;entryDx=0;entryDy=0;entryPerimeter=0;" parent="aVW-M8XnfOwhoePV5vjM-1" source="aVW-M8XnfOwhoePV5vjM-64" target="aVW-M8XnfOwhoePV5vjM-27" edge="1">
          <mxGeometry relative="1" as="geometry" />
        </mxCell>
        <mxCell id="aVW-M8XnfOwhoePV5vjM-67" style="edgeStyle=orthogonalEdgeStyle;rounded=0;orthogonalLoop=1;jettySize=auto;html=1;entryX=1;entryY=0.5;entryDx=0;entryDy=0;entryPerimeter=0;" parent="aVW-M8XnfOwhoePV5vjM-1" source="aVW-M8XnfOwhoePV5vjM-63" target="aVW-M8XnfOwhoePV5vjM-61" edge="1">
          <mxGeometry relative="1" as="geometry" />
        </mxCell>
        <mxCell id="aVW-M8XnfOwhoePV5vjM-73" value="WAF" style="sketch=0;points=[[0,0,0],[0.25,0,0],[0.5,0,0],[0.75,0,0],[1,0,0],[0,1,0],[0.25,1,0],[0.5,1,0],[0.75,1,0],[1,1,0],[0,0.25,0],[0,0.5,0],[0,0.75,0],[1,0.25,0],[1,0.5,0],[1,0.75,0]];outlineConnect=0;fontColor=#232F3E;fillColor=#DD344C;strokeColor=#ffffff;dashed=0;verticalLabelPosition=bottom;verticalAlign=top;align=center;html=1;fontSize=12;fontStyle=0;aspect=fixed;shape=mxgraph.aws4.resourceIcon;resIcon=mxgraph.aws4.waf;" parent="aVW-M8XnfOwhoePV5vjM-1" vertex="1">
          <mxGeometry x="30" y="85" width="78" height="78" as="geometry" />
        </mxCell>
        <mxCell id="aVW-M8XnfOwhoePV5vjM-74" value="VPC" style="sketch=0;outlineConnect=0;html=1;whiteSpace=wrap;fontSize=12;fontStyle=0;shape=mxgraph.aws4.group;grIcon=mxgraph.aws4.group_vpc;strokeColor=#6c8ebf;fillColor=#dae8fc;verticalAlign=top;align=left;spacingLeft=30;dashed=0;" parent="aVW-M8XnfOwhoePV5vjM-1" vertex="1">
          <mxGeometry x="138" y="40" width="402" height="180" as="geometry" />
        </mxCell>
        <mxCell id="aVW-M8XnfOwhoePV5vjM-76" value="API GW" style="sketch=0;points=[[0,0,0],[0.25,0,0],[0.5,0,0],[0.75,0,0],[1,0,0],[0,1,0],[0.25,1,0],[0.5,1,0],[0.75,1,0],[1,1,0],[0,0.25,0],[0,0.5,0],[0,0.75,0],[1,0.25,0],[1,0.5,0],[1,0.75,0]];outlineConnect=0;fontColor=#232F3E;fillColor=#E7157B;strokeColor=#ffffff;dashed=0;verticalLabelPosition=bottom;verticalAlign=top;align=center;html=1;fontSize=12;fontStyle=0;aspect=fixed;shape=mxgraph.aws4.resourceIcon;resIcon=mxgraph.aws4.api_gateway;" parent="aVW-M8XnfOwhoePV5vjM-1" vertex="1">
          <mxGeometry x="170" y="91" width="78" height="78" as="geometry" />
        </mxCell>
        <mxCell id="aVW-M8XnfOwhoePV5vjM-77" value="KMS" style="outlineConnect=0;dashed=0;verticalLabelPosition=bottom;verticalAlign=top;align=center;html=1;shape=mxgraph.aws3.kms;fillColor=#759C3E;gradientColor=none;" parent="aVW-M8XnfOwhoePV5vjM-1" vertex="1">
          <mxGeometry x="1170" y="284" width="76.5" height="93" as="geometry" />
        </mxCell>
        <mxCell id="aVW-M8XnfOwhoePV5vjM-78" value="IAM" style="outlineConnect=0;dashed=0;verticalLabelPosition=bottom;verticalAlign=top;align=center;html=1;shape=mxgraph.aws3.iam;fillColor=#759C3E;gradientColor=none;" parent="aVW-M8XnfOwhoePV5vjM-1" vertex="1">
          <mxGeometry x="1070" y="290" width="42" height="81" as="geometry" />
        </mxCell>
        <mxCell id="aVW-M8XnfOwhoePV5vjM-79" value="AWS Secrets Manager" style="sketch=0;outlineConnect=0;fontColor=#232F3E;gradientColor=none;strokeColor=#ffffff;fillColor=#232F3E;dashed=0;verticalLabelPosition=middle;verticalAlign=bottom;align=center;html=1;whiteSpace=wrap;fontSize=10;fontStyle=1;spacing=3;shape=mxgraph.aws4.productIcon;prIcon=mxgraph.aws4.secrets_manager;" parent="aVW-M8XnfOwhoePV5vjM-1" vertex="1">
          <mxGeometry x="940" y="284" width="80" height="110" as="geometry" />
        </mxCell>
        <mxCell id="aVW-M8XnfOwhoePV5vjM-80" value="" style="rounded=1;whiteSpace=wrap;html=1;fillColor=#a20025;dashed=1;strokeColor=#6F0000;opacity=20;fontColor=#ffffff;" parent="aVW-M8XnfOwhoePV5vjM-1" vertex="1">
          <mxGeometry x="860" y="254" width="440" height="150" as="geometry" />
        </mxCell>
        <mxCell id="aVW-M8XnfOwhoePV5vjM-89" style="edgeStyle=orthogonalEdgeStyle;rounded=0;orthogonalLoop=1;jettySize=auto;html=1;" parent="aVW-M8XnfOwhoePV5vjM-1" source="aVW-M8XnfOwhoePV5vjM-83" target="aVW-M8XnfOwhoePV5vjM-29" edge="1">
          <mxGeometry relative="1" as="geometry">
            <Array as="points">
              <mxPoint x="480" y="133" />
              <mxPoint x="480" y="319" />
            </Array>
          </mxGeometry>
        </mxCell>
        <mxCell id="aVW-M8XnfOwhoePV5vjM-91" style="edgeStyle=orthogonalEdgeStyle;rounded=0;orthogonalLoop=1;jettySize=auto;html=1;" parent="aVW-M8XnfOwhoePV5vjM-1" source="aVW-M8XnfOwhoePV5vjM-83" target="aVW-M8XnfOwhoePV5vjM-90" edge="1">
          <mxGeometry relative="1" as="geometry" />
        </mxCell>
        <mxCell id="aVW-M8XnfOwhoePV5vjM-83" value="" style="points=[];aspect=fixed;html=1;align=center;shadow=0;dashed=0;fillColor=#FF6A00;strokeColor=none;shape=mxgraph.alibaba_cloud.nlb_network_load_balancer_02;" parent="aVW-M8XnfOwhoePV5vjM-1" vertex="1">
          <mxGeometry x="360" y="103" width="60" height="60" as="geometry" />
        </mxCell>
        <mxCell id="aVW-M8XnfOwhoePV5vjM-88" style="edgeStyle=orthogonalEdgeStyle;rounded=0;orthogonalLoop=1;jettySize=auto;html=1;entryX=0.04;entryY=0.528;entryDx=0;entryDy=0;entryPerimeter=0;" parent="aVW-M8XnfOwhoePV5vjM-1" source="aVW-M8XnfOwhoePV5vjM-76" target="aVW-M8XnfOwhoePV5vjM-83" edge="1">
          <mxGeometry relative="1" as="geometry" />
        </mxCell>
        <mxCell id="aVW-M8XnfOwhoePV5vjM-90" value="" style="outlineConnect=0;dashed=0;verticalLabelPosition=bottom;verticalAlign=top;align=center;html=1;shape=mxgraph.aws3.lambda_function;fillColor=#F58534;gradientColor=none;" parent="aVW-M8XnfOwhoePV5vjM-1" vertex="1">
          <mxGeometry x="590" y="50" width="69" height="72" as="geometry" />
        </mxCell>
        <mxCell id="aVW-M8XnfOwhoePV5vjM-92" style="edgeStyle=orthogonalEdgeStyle;rounded=0;orthogonalLoop=1;jettySize=auto;html=1;entryX=0;entryY=0.5;entryDx=0;entryDy=0;entryPerimeter=0;" parent="aVW-M8XnfOwhoePV5vjM-1" source="aVW-M8XnfOwhoePV5vjM-73" target="aVW-M8XnfOwhoePV5vjM-76" edge="1">
          <mxGeometry relative="1" as="geometry" />
        </mxCell>
        <mxCell id="aVW-M8XnfOwhoePV5vjM-9" value="bank data center" style="points=[[0,0],[0.25,0],[0.5,0],[0.75,0],[1,0],[1,0.25],[1,0.5],[1,0.75],[1,1],[0.75,1],[0.5,1],[0.25,1],[0,1],[0,0.75],[0,0.5],[0,0.25]];outlineConnect=0;html=1;whiteSpace=wrap;fontSize=12;fontStyle=0;container=1;pointerEvents=0;collapsible=0;recursiveResize=0;shape=mxgraph.aws4.group;grIcon=mxgraph.aws4.group_corporate_data_center;strokeColor=#82b366;fillColor=#d5e8d4;verticalAlign=top;align=left;spacingLeft=30;dashed=0;" parent="1" vertex="1">
          <mxGeometry x="120" y="-130" width="1100" height="240" as="geometry" />
        </mxCell>
        <mxCell id="aVW-M8XnfOwhoePV5vjM-13" value="Request GW" style="sketch=0;outlineConnect=0;fontColor=#232F3E;gradientColor=none;fillColor=#8C4FFF;strokeColor=none;dashed=0;verticalLabelPosition=bottom;verticalAlign=top;align=center;html=1;fontSize=12;fontStyle=0;aspect=fixed;pointerEvents=1;shape=mxgraph.aws4.gateway;" parent="aVW-M8XnfOwhoePV5vjM-9" vertex="1">
          <mxGeometry x="170" y="110" width="76" height="78" as="geometry" />
        </mxCell>
        <mxCell id="aVW-M8XnfOwhoePV5vjM-15" value="HSM&lt;div&gt;&lt;br&gt;&lt;/div&gt;" style="image;aspect=fixed;html=1;points=[];align=center;fontSize=12;image=img/lib/azure2/other/Dedicated_HSM.svg;" parent="aVW-M8XnfOwhoePV5vjM-9" vertex="1">
          <mxGeometry x="360" y="20" width="68" height="62" as="geometry" />
        </mxCell>
        <mxCell id="aVW-M8XnfOwhoePV5vjM-16" value="Core Banking&amp;nbsp; System" style="sketch=0;pointerEvents=1;shadow=0;dashed=0;html=1;strokeColor=none;labelPosition=center;verticalLabelPosition=bottom;verticalAlign=top;align=center;fillColor=#515151;shape=mxgraph.mscae.enterprise.database_server" parent="aVW-M8XnfOwhoePV5vjM-9" vertex="1">
          <mxGeometry x="730" y="130" width="75" height="72" as="geometry" />
        </mxCell>
        <mxCell id="aVW-M8XnfOwhoePV5vjM-18" value="Analytic System" style="shape=cylinder3;whiteSpace=wrap;html=1;boundedLbl=1;backgroundOutline=1;size=15;" parent="aVW-M8XnfOwhoePV5vjM-9" vertex="1">
          <mxGeometry x="860" y="30" width="60" height="80" as="geometry" />
        </mxCell>
        <mxCell id="aVW-M8XnfOwhoePV5vjM-19" style="edgeStyle=orthogonalEdgeStyle;rounded=0;orthogonalLoop=1;jettySize=auto;html=1;" parent="1" source="aVW-M8XnfOwhoePV5vjM-10" target="aVW-M8XnfOwhoePV5vjM-9" edge="1">
          <mxGeometry relative="1" as="geometry" />
        </mxCell>
        <mxCell id="aVW-M8XnfOwhoePV5vjM-10" value="Bank Onsite" style="whiteSpace=wrap;html=1;aspect=fixed;textOpacity=30;dashed=1;dashPattern=8 8;verticalAlign=bottom;" parent="1" vertex="1">
          <mxGeometry x="-180" y="-115" width="180" height="180" as="geometry" />
        </mxCell>
        <mxCell id="aVW-M8XnfOwhoePV5vjM-11" value="" style="verticalLabelPosition=bottom;verticalAlign=top;html=1;shadow=0;dashed=0;strokeWidth=1;shape=mxgraph.android.phone2;strokeColor=#82b366;fillColor=#d5e8d4;" parent="1" vertex="1">
          <mxGeometry x="-90" y="-70" width="50" height="90" as="geometry" />
        </mxCell>
        <mxCell id="aVW-M8XnfOwhoePV5vjM-12" value="" style="shape=image;html=1;verticalAlign=top;verticalLabelPosition=bottom;labelBackgroundColor=#ffffff;imageAspect=0;aspect=fixed;image=https://cdn2.iconfinder.com/data/icons/boxicons-solid-vol-1/24/bxs-bank-128.png" parent="1" vertex="1">
          <mxGeometry x="-180" y="-130" width="40" height="40" as="geometry" />
        </mxCell>
        <mxCell id="aVW-M8XnfOwhoePV5vjM-14" value="" style="shape=actor;whiteSpace=wrap;html=1;" parent="1" vertex="1">
          <mxGeometry x="-160" y="-60" width="40" height="60" as="geometry" />
        </mxCell>
        <mxCell id="aVW-M8XnfOwhoePV5vjM-25" style="edgeStyle=orthogonalEdgeStyle;rounded=0;orthogonalLoop=1;jettySize=auto;html=1;entryX=0.5;entryY=0;entryDx=0;entryDy=0;entryPerimeter=0;" parent="1" source="aVW-M8XnfOwhoePV5vjM-9" target="aVW-M8XnfOwhoePV5vjM-23" edge="1">
          <mxGeometry relative="1" as="geometry" />
        </mxCell>
        <mxCell id="aVW-M8XnfOwhoePV5vjM-70" value="Users" style="shape=image;html=1;verticalAlign=top;verticalLabelPosition=bottom;labelBackgroundColor=#ffffff;imageAspect=0;aspect=fixed;image=https://cdn0.iconfinder.com/data/icons/devices-42/512/Normal_LCD-128.png" parent="1" vertex="1">
          <mxGeometry x="-600" y="183" width="128" height="128" as="geometry" />
        </mxCell>
        <mxCell id="aVW-M8XnfOwhoePV5vjM-71" value="Internet" style="outlineConnect=0;dashed=0;verticalLabelPosition=bottom;verticalAlign=top;align=center;html=1;shape=mxgraph.aws3.internet_2;fillColor=#D2D3D3;gradientColor=none;" parent="1" vertex="1">
          <mxGeometry x="-350" y="220" width="79.5" height="54" as="geometry" />
        </mxCell>
        <mxCell id="aVW-M8XnfOwhoePV5vjM-72" style="edgeStyle=orthogonalEdgeStyle;rounded=0;orthogonalLoop=1;jettySize=auto;html=1;entryX=0;entryY=0.7;entryDx=0;entryDy=0;entryPerimeter=0;" parent="1" source="aVW-M8XnfOwhoePV5vjM-70" target="aVW-M8XnfOwhoePV5vjM-71" edge="1">
          <mxGeometry relative="1" as="geometry" />
        </mxCell>
        <mxCell id="aVW-M8XnfOwhoePV5vjM-75" style="edgeStyle=orthogonalEdgeStyle;rounded=0;orthogonalLoop=1;jettySize=auto;html=1;entryX=0;entryY=0.5;entryDx=0;entryDy=0;entryPerimeter=0;" parent="1" source="aVW-M8XnfOwhoePV5vjM-71" target="aVW-M8XnfOwhoePV5vjM-73" edge="1">
          <mxGeometry relative="1" as="geometry" />
        </mxCell>
        <mxCell id="AzxmfGKQlnz2-YDa-GOf-1" style="edgeStyle=orthogonalEdgeStyle;rounded=0;orthogonalLoop=1;jettySize=auto;html=1;" edge="1" parent="1" source="aVW-M8XnfOwhoePV5vjM-23" target="aVW-M8XnfOwhoePV5vjM-9">
          <mxGeometry relative="1" as="geometry" />
        </mxCell>
      </root>
    </mxGraphModel>
  </diagram>
</mxfile>
